<?xml version="1.0" encoding="iso-8859-1"?>
<!-- Uploaded to: SVG Repo, www.svgrepo.com, Generator: SVG Repo Mixer Tools -->
<svg height="800px" width="800px" version="1.1" id="Layer_1" xmlns="http://www.w3.org/2000/svg" xmlns:xlink="http://www.w3.org/1999/xlink" 
	 viewBox="0 0 511.874 511.874" xml:space="preserve">
<path style="fill:#E8594B;" d="M256,52.461c11.476-29.131,36.193-52.083,67.09-52.083c25.6,0,47.669,13.241,64.441,32.662
	c22.952,25.6,33.545,82.097-9.71,123.586C355.752,177.813,256,281.978,256,281.978s-99.752-104.166-121.821-125.352
	c-43.255-40.607-33.545-97.103-9.71-123.586C141.241,14.502,163.31,0.378,188.91,0.378C219.807,0.378,244.524,22.447,256,52.461"/>
<path style="fill:#FABA81;" d="M505.821,345.537c7.062-5.297,7.945-15.89,2.648-22.952c-11.476-15.007-20.303-19.421-58.262,0.883
	l-76.8,46.786c-23.835,12.359-84.745,8.828-111.228,8.828c0,0,62.676,4.414,37.959-32.662
	c-12.359-18.538-33.545-29.131-56.497-29.131h-34.428c-20.303,0-39.724-6.179-55.614-17.655
	c-37.959-29.131-109.462,26.483-109.462,26.483v158.897h123.586c17.655,0,35.31-1.766,52.966-4.414l114.759-17.655
	c3.531,0,7.945-0.883,11.476-0.883l0,0c9.71-0.883,17.655-6.179,24.717-12.359L505.821,345.537z"/>
<path style="fill:#139DB5;" d="M0,511.496h44.138V299.633H0V511.496z"/>
<path style="fill:#F4935E;" d="M167.724,414.392c-5.297,0-8.828-3.531-8.828-8.828c0-22.069,16.772-35.31,44.138-35.31h85.628
	c5.297,0,8.828,3.531,8.828,8.828s-3.531,8.828-8.828,8.828h-85.628c-26.483,0-26.483,13.241-26.483,17.655
	C176.552,410.861,173.021,414.392,167.724,414.392z"/>
</svg>