<?xml version="1.0" encoding="iso-8859-1"?>
<!-- Uploaded to: SVG Repo, www.svgrepo.com, Generator: SVG Repo Mixer Tools -->
<svg height="800px" width="800px" version="1.1" id="Layer_1" xmlns="http://www.w3.org/2000/svg" xmlns:xlink="http://www.w3.org/1999/xlink" 
	 viewBox="0 0 512 512" xml:space="preserve">
<polyline style="fill:#E8BB51;" points="87.742,120.05 3.692,181.541 3.692,501.512 3.692,501.526 3.692,512 508.308,512 
	508.308,501.526 508.308,501.512 508.308,181.541 424.258,120.05 "/>
<polygon style="fill:#D1A13E;" points="508.307,181.542 508.307,181.554 424.265,243.033 291.357,340.278 256.007,314.412 
	220.657,340.278 87.748,243.033 3.695,181.542 87.748,120.05 424.265,120.05 "/>
<polygon style="fill:#F0E9DD;" points="424.258,0 424.258,243.029 289.641,341.529 255.999,316.92 222.358,341.529 87.741,243.029 
	87.741,0 "/>
<path style="fill:#CEC4BC;" d="M424.258,210.995v32.034l-134.617,98.5l-33.642-24.609l-33.642,24.609l-134.617-98.5v-32.034
	l130.45,95.452c2.481,1.815,5.853,1.816,8.335,0l25.307-18.513c2.481-1.815,5.853-1.815,8.334,0l25.307,18.513
	c2.482,1.815,5.853,1.815,8.335,0L424.258,210.995z"/>
<path style="fill:#D1A13E;" d="M451.682,458.338l-12.288-10.462c-8.193-6.975-16.489-13.807-24.787-20.637
	c-16.624-13.624-33.422-27.009-50.318-40.259c-16.891-13.257-33.942-26.297-51.055-39.251l-25.761-19.307l-25.912-19.1
	c-3.218-2.368-7.74-2.497-11.124,0l-25.905,19.111c-8.584,6.441-17.213,12.82-25.759,19.311
	c-17.12,12.947-34.157,26.006-51.057,39.253c-16.895,13.254-33.694,26.638-50.321,40.259c-8.3,6.828-16.598,13.659-24.793,20.631
	l-12.292,10.458c-4.05,3.551-8.145,7.04-12.154,10.648c4.652-2.729,9.216-5.576,13.826-8.361l13.687-8.552
	c9.125-5.701,18.147-11.542,27.167-17.387c18.013-11.726,35.854-23.686,53.599-35.778c17.74-12.097,35.345-24.382,52.867-36.78
	c8.773-6.181,17.465-12.473,26.202-18.705l20.493-14.867l20.486,14.88l26.197,18.711c17.526,12.39,35.113,24.696,52.861,36.785
	c17.743,12.094,35.583,24.054,53.598,35.776c9.021,5.843,18.044,11.682,27.171,17.38l13.69,8.546
	c4.612,2.783,9.178,5.628,13.831,8.354C459.824,465.382,455.73,461.892,451.682,458.338z"/>
<g>
	<path style="fill:#E77763;" d="M256.001,269.53c86.172-44.267,91.917-134.382,61.277-142.286
		c-30.639-7.905-61.277,37.943-61.277,37.943s-30.639-45.847-61.277-37.943C164.084,135.148,169.829,225.263,256.001,269.53z"/>
	<path style="fill:#E77763;" d="M150.306,43.07c-3.408,1.202-6.03,3.357-7.672,5.867c-1.643,2.519-2.303,5.336-2.04,7.839
		c0.059,0.621,0.149,1.256,0.34,1.819c0.109,0.584,0.393,1.104,0.597,1.616c0.555,0.979,1.121,1.865,1.918,2.559
		c0.81,0.668,1.632,1.264,2.565,1.648c0.938,0.364,1.892,0.585,2.818,0.654c0.931,0.016,1.822-0.029,2.638-0.319
		c0.21-0.024,0.401-0.166,0.599-0.226c0.195-0.087,0.399-0.112,0.582-0.247c0.187-0.111,0.373-0.21,0.562-0.3l1.067-0.55
		c3.093-1.59,6.192-3.164,9.319-4.677c6.245-3.044,12.552-5.943,18.917-8.708c6.364-2.767,12.79-5.394,19.278-7.877
		c3.242-1.246,6.505-2.445,9.781-3.612l0.614-0.22l0.715-0.245l1.891-0.58c0.621-0.207,1.286-0.29,1.933-0.41
		c0.653-0.095,1.294-0.247,1.957-0.247c2.633-0.211,5.251,0.167,7.707,0.866c4.899,1.505,9.065,4.779,11.572,9.028
		c1.259,2.122,2.046,4.487,2.411,6.848c0.109,1.196,0.227,2.373,0.111,3.535c-0.043,1.171-0.202,2.274-0.496,3.375
		c-1.103,4.398-3.821,8.106-7.242,10.335c-3.396,2.267-7.495,3.087-11.026,2.309c3.408-1.208,6.025-3.367,7.663-5.877
		c1.638-2.519,2.294-5.334,2.028-7.831c-0.055-0.619-0.15-1.254-0.34-1.815c-0.109-0.583-0.394-1.1-0.599-1.61
		c-0.55-0.977-1.119-1.86-1.914-2.55c-0.81-0.663-1.623-1.263-2.558-1.642c-0.938-0.358-1.884-0.587-2.809-0.652
		c-0.928-0.015-1.815,0.031-2.628,0.323c-0.209,0.025-0.401,0.16-0.598,0.221c-0.195,0.087-0.398,0.112-0.579,0.247
		c-0.186,0.111-0.372,0.21-0.559,0.3l-1.068,0.548c-3.09,1.594-6.194,3.158-9.32,4.673c-6.246,3.04-12.555,5.937-18.925,8.692
		c-6.369,2.757-12.796,5.382-19.286,7.86c-3.241,1.249-6.508,2.437-9.782,3.608l-1.33,0.462l-1.888,0.58
		c-0.621,0.207-1.285,0.29-1.931,0.411c-0.652,0.098-1.294,0.242-1.956,0.244c-2.629,0.212-5.245-0.166-7.698-0.863
		c-4.889-1.512-9.057-4.769-11.557-9.02c-1.257-2.119-2.049-4.48-2.407-6.839c-0.109-1.195-0.229-2.369-0.113-3.53
		c0.043-1.168,0.198-2.271,0.496-3.372c1.099-4.393,3.813-8.099,7.23-10.329C142.681,43.121,146.775,42.3,150.306,43.07z"/>
	<path style="fill:#E77763;" d="M361.694,43.07c3.531-0.77,7.625,0.052,11.016,2.319c3.417,2.229,6.13,5.936,7.23,10.329
		c0.298,1.1,0.452,2.203,0.496,3.372c0.116,1.161-0.003,2.335-0.113,3.53c-0.358,2.359-1.151,4.72-2.407,6.839
		c-2.5,4.251-6.668,7.507-11.557,9.02c-2.453,0.697-5.069,1.074-7.698,0.863c-0.662-0.001-1.303-0.146-1.956-0.244
		c-0.647-0.119-1.311-0.202-1.931-0.411l-1.888-0.58l-1.33-0.462c-3.275-1.171-6.541-2.359-9.782-3.608
		c-6.49-2.479-12.917-5.103-19.286-7.86c-6.37-2.755-12.679-5.652-18.925-8.692c-3.126-1.515-6.23-3.079-9.32-4.673l-1.068-0.548
		c-0.187-0.09-0.373-0.19-0.559-0.3c-0.181-0.136-0.386-0.162-0.579-0.247c-0.198-0.063-0.389-0.196-0.598-0.221
		c-0.813-0.29-1.701-0.337-2.629-0.323c-0.925,0.065-1.872,0.294-2.809,0.652c-0.935,0.379-1.749,0.979-2.558,1.642
		c-0.795,0.69-1.364,1.573-1.914,2.55c-0.203,0.51-0.49,1.029-0.599,1.61c-0.191,0.562-0.285,1.196-0.34,1.815
		c-0.266,2.497,0.389,5.313,2.028,7.831c1.638,2.51,4.255,4.668,7.663,5.877c-3.531,0.776-7.63-0.043-11.026-2.309
		c-3.422-2.229-6.139-5.938-7.242-10.335c-0.294-1.102-0.453-2.205-0.496-3.375c-0.117-1.162,0.001-2.339,0.111-3.535
		c0.363-2.36,1.151-4.726,2.411-6.848c2.507-4.25,6.674-7.522,11.572-9.028c2.456-0.698,5.074-1.077,7.707-0.866
		c0.663,0,1.304,0.152,1.957,0.247c0.647,0.119,1.313,0.202,1.933,0.41l1.891,0.58l0.715,0.245l0.614,0.22
		c3.276,1.167,6.539,2.364,9.781,3.612c6.488,2.482,12.914,5.109,19.278,7.877c6.365,2.765,12.673,5.664,18.917,8.708
		c3.127,1.512,6.226,3.087,9.319,4.677l1.067,0.55c0.188,0.09,0.374,0.19,0.562,0.3c0.182,0.136,0.387,0.162,0.582,0.247
		c0.2,0.059,0.391,0.202,0.599,0.226c0.817,0.29,1.707,0.335,2.638,0.319c0.927-0.068,1.879-0.29,2.818-0.654
		c0.933-0.384,1.755-0.98,2.565-1.648c0.798-0.692,1.363-1.58,1.918-2.559c0.203-0.511,0.489-1.031,0.597-1.616
		c0.191-0.563,0.28-1.198,0.34-1.819c0.263-2.502-0.397-5.32-2.04-7.839C367.724,46.426,365.102,44.272,361.694,43.07z"/>
</g>
</svg>