<?xml version="1.0" encoding="iso-8859-1"?>
<!-- Uploaded to: SVG Repo, www.svgrepo.com, Generator: SVG Repo Mixer Tools -->
<svg xmlns="http://www.w3.org/2000/svg" xmlns:xlink="http://www.w3.org/1999/xlink" version="1.1" id="Capa_1"  viewBox="0 0 463.392 463.392" xml:space="preserve" width="512" height="512">
<g>
	<path style="fill:#FF6288;" d="M436.369,196.46l-42.363-42.363c-11.696-11.696-30.66-11.696-42.356,0l-30.314-12.042   l-12.042-30.314c11.696-11.696,11.696-30.66,0-42.356l-42.363-42.363C233.345-6.565,201.27-3.185,169.726,7.117l118.391,125.801   l28.751,13.605l13.605,28.751l125.801,118.391C466.577,262.121,469.957,230.047,436.369,196.46z"/>
	<path style="fill:#FF849B;" d="M458.233,429.281c5.883,5.883,5.89,15.422,0.007,21.305c-5.883,5.883-15.429,5.883-21.312,0   l0.127-0.127c-52.17-52.17-31.615-105.946-16.794-145.289c9.164-24.339,0.601-39.506-17.784-57.891l-72.005-72.005   c11.703-11.66,30.639-11.646,42.32,0.035l56.505,56.505c21.128,21.128,27.627,41.67,26.976,61.851   C441.453,339.048,412.257,383.305,458.233,429.281z"/>
	<path style="fill:#FF849B;" d="M34.11,5.159c-5.883-5.883-15.422-5.89-21.305-0.007s-5.883,15.429,0,21.312l0.127-0.127   c52.17,52.17,105.946,31.615,145.289,16.794c24.339-9.164,39.506-0.601,57.891,17.784l72.005,72.005   c11.66-11.703,11.646-30.639-0.035-42.32l-56.505-56.505c-21.128-21.128-41.67-27.627-61.851-26.976   C124.344,21.938,80.086,51.135,34.11,5.159z"/>
	
		<rect x="304.906" y="113.559" transform="matrix(0.7071 -0.7071 0.7071 0.7071 -7.7858 268.2235)" style="fill:#7BFFCD;" width="29.951" height="59.903"/>
	<path style="fill:#7BFFCD;" d="M426.323,461.195L2.197,37.069c-2.929-2.929-2.929-7.678,0-10.607s7.677-2.929,10.607,0   l424.126,424.126c2.929,2.929,2.929,7.678,0,10.607C434,464.124,429.252,464.124,426.323,461.195z"/>
	
		<rect x="251.323" y="-49.759" transform="matrix(0.7071 0.7071 -0.7071 0.7071 220.4594 -123.0986)" style="fill:#972041;" width="15" height="508.656"/>
	<polygon style="fill:#E44670;" points="151.338,312.054 156.641,317.352 156.641,356.17 114.282,398.529 100.163,343.261  "/>
	<polygon style="fill:#FF849B;" points="151.338,312.054 100.163,363.228 64.863,349.109 107.222,306.75 146.035,306.75  "/>
	<polygon style="fill:#5DC09A;" points="114.288,349.104 114.288,398.523 57.81,455.001 57.81,385.614  "/>
	<polygon style="fill:#7BFFCD;" points="114.288,349.104 57.81,405.582 8.39,405.582 64.868,349.104  "/>
	<polygon style="fill:#5DC09A;" points="462.562,0.652 439.112,14.203 431.5,31.715 442.796,69.836  "/>
	<polygon style="fill:#7BFFCD;" points="393.379,20.419 431.5,31.715 462.562,0.652  "/>
</g>















</svg>